<svg xmlns="http://www.w3.org/2000/svg" viewBox="0 0 1080 680" role="img" aria-label="BIG CRUISE ID"><rect width="1080" height="680" rx="48" fill="#0B0B0B"/><rect x="22" y="22" width="1036" height="636" rx="32" fill="none" stroke="#F5C400" stroke-width="4"/><g transform="translate(76 72)"><text x="0" y="0" dy="0" font-family="Arial Narrow, Helvetica Neue, Arial, sans-serif" font-size="34" font-weight="800" letter-spacing="4" fill="#F5C400">BIG CRUISE</text><path d="M0 38H928" stroke="#F5C400" stroke-width="3" opacity=".45"/><g transform="translate(0 94)"><circle cx="112" cy="112" r="104" fill="#F5C400"/><path d="M55 145 C64 111 70 77 92 77 C108 77 113 106 118 125 C123 106 130 77 146 77 C168 77 174 116 184 171" fill="none" stroke="#0B0B0B" stroke-width="16" stroke-linecap="round" stroke-linejoin="round"/></g><g transform="translate(270 110)"><text x="0" y="0" dy="0" font-family="Arial Narrow, Helvetica Neue, Arial, sans-serif" font-size="56" font-weight="800" fill="#F7F3E8">BIG CRUISE ID</text><text x="0" y="78" font-family="Arial, sans-serif" font-size="25" letter-spacing="5" fill="#F5C400">COMMUNITY MEMBER</text><text x="0" y="160" font-family="Arial, sans-serif" font-size="20" fill="#C9C3B5">ID</text><text x="0" y="196" font-family="Arial Black, Arial, sans-serif" font-size="34" fill="#F7F3E8">BC-000000</text><text x="0" y="260" font-family="Arial, sans-serif" font-size="18" fill="#C9C3B5">MEMBER • BIG CRUISE HQ〽️</text></g></g><g transform="translate(76 548)"><path d="M0 0H928" stroke="#F5C400" stroke-width="3" opacity=".45"/><text x="0" y="48" font-family="Arial, sans-serif" font-size="18" letter-spacing="3" fill="#C9C3B5">THE INTERNET HAS A BUS. THIS IS THE PASS.</text></g></svg>